<?xml version="1.0" standalone="no"?>
<!DOCTYPE svg PUBLIC "-//W3C//DTD SVG 20010904//EN"
 "http://www.w3.org/TR/2001/REC-SVG-20010904/DTD/svg10.dtd">
<svg version="1.0" xmlns="http://www.w3.org/2000/svg"
 width="750.000000pt" height="483.000000pt" viewBox="0 0 750.000000 483.000000"
 preserveAspectRatio="xMidYMid meet">

<g transform="translate(0.000000,483.000000) scale(0.100000,-0.100000)"
fill="#000000" stroke="none">
<path d="M2474 4676 c-69 -16 -171 -55 -259 -99 -33 -17 -353 -168 -711 -337
-358 -169 -677 -324 -708 -345 -118 -78 -157 -172 -121 -292 27 -91 89 -146
285 -250 41 -22 158 -86 260 -141 178 -96 340 -183 1075 -577 187 -100 493
-264 680 -365 187 -100 378 -203 425 -227 47 -25 108 -58 135 -73 28 -15 149
-81 270 -145 121 -65 243 -130 270 -145 28 -15 95 -51 150 -80 55 -29 118 -63
140 -75 253 -138 437 -230 515 -257 87 -29 106 -32 215 -32 105 0 130 3 200
28 44 15 114 46 155 70 133 76 1343 807 1413 854 78 52 111 88 139 152 12 25
25 53 29 62 12 23 11 64 0 86 -5 9 -19 38 -31 64 -23 51 -87 113 -154 151 -22
12 -122 61 -221 109 -99 48 -270 130 -380 183 -110 54 -258 126 -330 160 -71
34 -229 111 -350 170 -121 59 -301 147 -400 195 -99 48 -283 138 -410 200
-126 62 -311 152 -410 200 -263 128 -659 322 -1080 529 -203 101 -403 194
-445 208 -92 32 -251 40 -346 19z m317 -65 c64 -22 142 -59 644 -306 209 -103
461 -227 560 -275 99 -48 350 -171 559 -274 208 -102 380 -186 382 -186 6 0
218 -102 589 -285 198 -98 423 -208 500 -245 296 -143 771 -380 785 -392 9 -7
28 -29 43 -49 26 -35 26 -37 11 -68 -19 -38 -49 -61 -179 -138 -55 -33 -234
-139 -398 -236 -163 -98 -431 -257 -595 -354 -379 -226 -440 -257 -530 -273
-111 -20 -185 1 -407 115 -99 51 -200 104 -225 117 -25 14 -88 48 -140 75 -52
28 -169 90 -260 138 -91 48 -205 109 -255 135 -49 26 -235 125 -412 219 -178
94 -468 248 -645 342 -178 94 -363 193 -413 219 -121 64 -550 292 -650 345
-44 23 -197 104 -340 180 -143 76 -262 141 -265 144 -3 4 -54 31 -114 61 -118
60 -186 114 -186 149 0 54 32 79 206 160 l111 51 58 -20 c104 -36 147 -28 345
67 412 198 583 279 650 310 41 19 83 42 93 51 27 24 21 57 -15 87 -20 16 -28
29 -21 31 6 3 49 24 95 46 46 22 108 49 138 59 76 25 210 25 281 0z m-1931
-1119 c43 -26 66 -46 68 -61 2 -11 0 -21 -3 -21 -12 0 -140 87 -156 106 -9 10
-29 42 -45 69 l-28 50 49 -52 c28 -29 79 -70 115 -91z m-18 104 c5 4 103 -39
117 -52 2 -2 -2 -10 -8 -18 -11 -13 -17 -12 -49 7 -56 32 -102 68 -102 80 0 5
8 3 18 -6 10 -10 21 -14 24 -11z m350 -175 c89 -48 201 -108 248 -133 47 -25
256 -136 465 -248 209 -111 421 -224 470 -250 92 -49 337 -179 480 -255 44
-23 123 -65 175 -93 52 -27 374 -198 715 -380 341 -181 666 -353 722 -383 57
-30 103 -59 103 -66 0 -27 -24 -22 -103 20 -45 24 -127 68 -182 97 -55 29
-113 61 -130 70 -16 10 -97 52 -180 95 -82 43 -154 81 -160 85 -5 4 -68 38
-140 75 -71 37 -143 76 -160 85 -16 10 -73 40 -125 67 -164 87 -873 464 -925
493 -27 15 -97 52 -155 83 -87 46 -611 324 -925 492 -44 23 -150 80 -235 125
-172 92 -175 94 -165 110 10 16 24 9 207 -89z m-167 -20 c30 -16 62 -38 73
-49 10 -10 51 -36 91 -58 40 -21 67 -40 62 -42 -6 -2 -39 13 -74 32 -74 42
-87 45 -61 14 14 -17 11 -17 -11 3 -17 15 -53 39 -82 54 -47 24 -63 41 -63 66
0 14 7 11 65 -20z m155 -71 c32 -16 61 -34 65 -40 5 -8 -115 52 -134 67 -15
11 18 -1 69 -27z m175 -106 c51 -28 66 -41 62 -55 -3 -10 0 -16 7 -13 14 5
319 -160 324 -176 5 -13 -4 -9 -194 95 -92 50 -134 69 -130 57 5 -14 3 -13 -9
2 -8 11 -41 34 -73 50 -40 22 -58 38 -60 54 -2 12 -1 22 2 22 3 0 35 -16 71
-36z m248 -101 c153 -83 167 -92 167 -109 0 -8 16 -22 35 -31 19 -9 35 -22 35
-29 0 -12 38 -34 235 -139 103 -55 100 -53 92 -61 -7 -8 -283 140 -316 170
-21 18 -23 19 -18 3 6 -17 4 -16 -19 2 -15 12 -36 21 -47 21 -16 0 -17 2 -7
15 23 27 -18 65 -141 133 -162 89 -165 91 -151 92 7 0 68 -30 135 -67z m441
-238 c72 -39 135 -80 140 -91 5 -12 88 -62 200 -122 105 -56 234 -125 286
-153 52 -28 226 -121 385 -206 160 -86 318 -171 353 -189 34 -19 90 -49 125
-68 34 -18 190 -102 346 -185 740 -397 689 -367 667 -387 -9 -8 -76 23 -272
128 -142 77 -311 167 -374 200 -63 33 -128 69 -145 78 -16 10 -163 88 -325
175 -162 86 -322 172 -355 190 -453 246 -889 474 -896 469 -6 -3 -5 3 2 13 21
34 -12 64 -156 142 -74 40 -137 77 -141 82 -8 14 21 0 160 -76z m4902 -464
c-3 -5 1 -11 9 -15 18 -7 20 -55 3 -90 -8 -19 -15 -23 -23 -16 -17 14 -35 -10
-38 -47 -1 -15 -11 -35 -22 -45 -26 -22 -33 -14 -10 12 14 15 16 23 7 32 -17
17 -44 -10 -40 -41 2 -20 -5 -31 -30 -48 -18 -13 -34 -23 -36 -23 -1 0 -85
-49 -185 -109 -106 -65 -175 -101 -166 -88 19 28 19 49 -1 45 -23 -5 -52 -57
-37 -66 9 -6 4 -13 -16 -25 -28 -16 -28 -16 -23 8 5 26 -12 55 -32 55 -7 0
-21 -7 -32 -15 -19 -15 -19 -15 1 -8 27 8 18 1 -30 -26 -39 -23 -40 -23 -15
-1 l25 22 -32 -18 c-18 -10 -30 -21 -27 -25 6 -10 -34 -32 -46 -24 -5 3 -12 0
-16 -6 -4 -8 -3 -9 4 -5 25 15 10 -1 -20 -24 -28 -20 -31 -20 -18 -4 8 11 5 9
-7 -4 -15 -15 -23 -36 -23 -60 0 -31 -6 -41 -36 -60 l-36 -24 16 23 c21 31 20
49 -2 49 -21 0 -48 -60 -32 -70 6 -4 -24 -26 -65 -49 -41 -24 -78 -47 -81 -52
-3 -5 -10 -9 -16 -9 -6 0 -3 9 7 20 17 19 15 50 -4 50 -14 0 -31 -34 -31 -62
0 -13 -12 -31 -25 -41 -27 -19 -35 -8 -10 13 21 17 19 42 -2 38 -24 -4 -52
-56 -36 -66 8 -5 1 -13 -19 -25 l-31 -18 18 27 c12 19 14 29 6 37 -16 16 -45
-16 -47 -50 0 -16 -10 -33 -24 -42 -23 -15 -23 -15 -11 8 7 12 10 30 7 38 -11
27 -49 -15 -44 -48 3 -20 -2 -29 -24 -42 -29 -17 -29 -17 -13 5 20 30 19 50
-2 46 -22 -4 -46 -49 -33 -62 11 -11 -55 -55 -82 -56 -10 0 -18 -5 -18 -12 0
-6 -2 -9 -6 -6 -3 3 -37 -6 -77 -20 -63 -23 -88 -26 -202 -26 -123 0 -135 2
-236 36 -142 49 -287 122 -298 151 -13 33 3 32 62 -2 120 -68 261 -105 352
-91 25 4 45 3 45 -2 0 -24 138 9 225 53 33 17 62 35 65 39 3 4 30 20 60 35 30
15 309 179 620 365 311 185 630 376 710 423 80 47 163 99 185 115 44 34 49 36
41 23z m4 -145 c0 -2 -8 -10 -17 -17 -16 -13 -17 -12 -4 4 13 16 21 21 21 13z
m-639 -394 c-6 -11 -18 -22 -26 -26 -12 -4 -10 2 7 23 26 32 35 33 19 3z m-51
-36 c0 -3 -34 -25 -76 -50 -41 -26 -73 -42 -69 -37 5 9 134 91 143 91 1 0 2
-2 2 -4z m-1531 -305 c64 -32 141 -66 171 -76 78 -25 87 -39 20 -30 -75 10
-236 74 -328 130 -4 3 10 35 16 35 3 0 57 -26 121 -59z"/>
<path d="M1509 3733 c-13 -16 -12 -17 4 -4 9 7 17 15 17 17 0 8 -8 3 -21 -13z"/>
<path d="M4003 3680 c-34 -14 -28 -21 7 -9 17 6 30 13 30 15 0 6 -12 4 -37 -6z"/>
<path d="M3790 3676 c0 -2 11 -6 25 -8 13 -3 22 -1 19 3 -5 9 -44 13 -44 5z"/>
<path d="M3850 3666 c0 -7 61 -13 65 -6 2 3 -12 7 -31 8 -19 2 -34 1 -34 -2z"/>
<path d="M4540 3626 c0 -2 7 -7 16 -10 8 -3 12 -2 9 4 -6 10 -25 14 -25 6z"/>
<path d="M1427 3603 c-4 -3 -7 -11 -7 -17 0 -6 5 -5 12 2 6 6 9 14 7 17 -3 3
-9 2 -12 -2z"/>
<path d="M3090 3549 l-35 -31 32 22 c29 19 50 40 41 40 -2 0 -19 -14 -38 -31z"/>
<path d="M3004 3494 c-18 -14 -18 -15 4 -4 12 6 22 13 22 15 0 8 -5 6 -26 -11z"/>
<path d="M4356 3472 c-7 -12 79 -82 100 -82 21 0 18 3 -31 40 -25 18 -43 35
-41 37 8 8 56 -21 56 -34 0 -15 9 -16 29 -4 9 6 22 6 32 0 11 -6 20 -5 24 1 3
5 -14 15 -37 21 -24 7 -47 14 -53 16 -33 11 -74 13 -79 5z"/>
<path d="M2758 3453 c7 -3 16 -2 19 1 4 3 -2 6 -13 5 -11 0 -14 -3 -6 -6z"/>
<path d="M3320 3414 c0 -22 3 -62 6 -87 l7 -47 98 -50 c98 -51 99 -51 99 -26
0 31 -22 53 -71 73 -39 15 -39 15 -39 72 l0 56 107 -3 c85 -3 116 -8 148 -25
51 -26 77 -31 155 -28 33 2 29 5 -60 50 l-95 49 -177 4 -178 4 0 -42z"/>
<path d="M4274 3425 c-19 -15 -18 -16 9 -40 15 -14 36 -25 45 -26 9 0 25 -2
36 -4 22 -4 67 15 61 26 -3 4 -18 2 -34 -4 -24 -9 -36 -7 -65 8 -41 22 -42 23
-18 41 14 11 15 13 1 14 -8 0 -24 -7 -35 -15z"/>
<path d="M4210 3379 c38 -25 113 -60 123 -56 13 4 -105 67 -125 67 -9 0 -9 -3
2 -11z"/>
<path d="M4123 3348 c-13 -6 -23 -14 -23 -17 1 -9 130 -65 136 -58 3 3 -4 8
-15 12 -40 12 -21 23 32 19 38 -4 48 -2 37 5 -8 6 -23 11 -32 11 -10 0 -27 9
-38 20 -22 22 -62 25 -97 8z m67 -8 c13 -9 13 -11 0 -20 -8 -5 -17 -10 -20
-10 -3 0 -12 5 -20 10 -13 9 -13 11 0 20 8 5 17 10 20 10 3 0 12 -5 20 -10z"/>
<path d="M4513 3325 c0 -8 4 -12 9 -9 5 3 6 10 3 15 -9 13 -12 11 -12 -6z"/>
<path d="M4033 3301 c-38 -19 -43 -34 -9 -25 15 3 42 -4 74 -20 56 -28 62 -30
62 -18 0 4 -21 18 -46 30 -38 19 -44 25 -34 37 16 20 -3 18 -47 -4z"/>
<path d="M4428 3293 c7 -3 16 -2 19 1 4 3 -2 6 -13 5 -11 0 -14 -3 -6 -6z"/>
<path d="M4373 3275 c-10 -10 -9 -15 4 -19 22 -9 37 8 21 21 -9 8 -16 7 -25
-2z"/>
<path d="M3915 3270 c-3 -5 -1 -10 4 -10 6 0 11 5 11 10 0 6 -2 10 -4 10 -3 0
-8 -4 -11 -10z"/>
<path d="M3947 3254 c-35 -19 -28 -30 35 -59 41 -19 56 -21 79 -13 30 10 48
28 29 28 -6 0 -20 -4 -30 -10 -20 -11 -50 -4 -50 11 0 5 7 9 15 9 8 0 15 5 15
10 0 13 -6 13 -31 -1 -11 -5 -29 -7 -41 -3 l-21 6 23 13 c12 7 19 15 14 18 -5
3 -22 -1 -37 -9z"/>
<path d="M4307 3224 c23 -17 30 -17 30 0 0 8 -11 14 -24 14 -22 0 -22 -1 -6
-14z"/>
<path d="M3873 3213 c-9 -3 -8 -12 5 -31 9 -14 11 -23 5 -19 -7 5 -13 4 -13
-1 0 -11 50 -26 58 -17 3 3 0 11 -6 17 -23 23 -11 27 23 7 19 -11 42 -19 51
-17 9 2 -12 16 -48 34 -34 17 -69 29 -75 27z"/>
<path d="M4223 3184 c11 -11 -30 -35 -50 -28 -17 5 -17 5 0 -6 14 -9 24 -7 48
8 27 17 29 20 13 26 -10 4 -15 4 -11 0z"/>
<path d="M3796 3171 c-8 -12 113 -76 123 -65 3 4 0 9 -8 12 -8 3 -25 15 -38
28 -27 27 -68 40 -77 25z"/>
<path d="M4070 3100 c8 -5 20 -10 25 -10 6 0 3 5 -5 10 -8 5 -19 10 -25 10 -5
0 -3 -5 5 -10z"/>
<path d="M3660 3095 c0 -10 100 -55 123 -55 13 0 32 7 43 15 22 16 4 20 -31 6
-14 -6 -35 -1 -67 15 -46 23 -68 29 -68 19z"/>
<path d="M4036 3092 c-3 -5 1 -9 9 -9 8 0 12 4 9 9 -3 4 -7 8 -9 8 -2 0 -6 -4
-9 -8z"/>
<path d="M3580 3060 c-12 -7 -10 -12 10 -30 14 -12 35 -30 48 -41 13 -11 27
-17 33 -14 10 7 2 16 -46 54 -16 13 -22 21 -12 18 10 -4 25 -7 33 -7 8 0 14
-6 14 -12 0 -9 16 -13 45 -14 25 0 45 3 45 8 0 4 -8 8 -18 8 -10 0 -22 4 -27
9 -8 6 -93 32 -107 31 -2 0 -10 -4 -18 -10z"/>
<path d="M3987 3059 c7 -7 15 -10 18 -7 3 3 -2 9 -12 12 -14 6 -15 5 -6 -5z"/>
<path d="M3483 3011 c-35 -17 -45 -36 -14 -26 12 3 40 -4 70 -20 28 -14 57
-25 66 -25 29 0 15 17 -34 40 -32 15 -48 27 -44 36 6 17 -3 16 -44 -5z"/>
<path d="M3844 2991 c4 -6 2 -11 -4 -11 -6 0 -8 -4 -5 -10 3 -5 11 -10 16 -10
6 0 7 5 3 12 -5 8 -2 9 9 5 24 -9 21 0 -4 14 -15 8 -19 8 -15 0z"/>
<path d="M3388 2958 c-39 -14 -35 -34 12 -58 46 -23 102 -26 120 -5 15 18 7
31 -32 51 -40 21 -67 24 -100 12z m90 -24 c28 -20 28 -32 -2 -40 -24 -6 -86
19 -86 35 0 25 54 29 88 5z"/>
<path d="M3772 2948 c2 -7 -5 -12 -14 -12 -10 1 -15 -3 -11 -9 4 -6 0 -8 -10
-4 -24 9 -21 0 4 -14 15 -8 19 -8 15 0 -7 10 6 16 27 12 5 -1 5 4 1 10 -5 9
-2 10 9 6 24 -9 21 0 -3 13 -16 8 -20 8 -18 -2z"/>
<path d="M3278 2903 c-21 -9 -38 -20 -38 -24 0 -11 11 -11 28 0 9 5 32 -2 65
-20 29 -16 58 -29 65 -29 25 0 11 17 -33 38 -31 15 -43 26 -39 37 7 18 0 18
-48 -2z"/>
<path d="M3630 2876 c0 -2 7 -7 16 -10 8 -3 12 -2 9 4 -6 10 -25 14 -25 6z"/>
<path d="M3612 2854 c10 -10 20 -15 24 -12 3 4 -5 12 -18 18 -22 12 -22 12 -6
-6z"/>
<path d="M5940 2456 c0 -2 7 -7 16 -10 8 -3 12 -2 9 4 -6 10 -25 14 -25 6z"/>
<path d="M5870 2410 c0 -5 5 -10 11 -10 5 0 7 5 4 10 -3 6 -8 10 -11 10 -2 0
-4 -4 -4 -10z"/>
<path d="M5840 2390 c0 -5 5 -10 11 -10 5 0 7 5 4 10 -3 6 -8 10 -11 10 -2 0
-4 -4 -4 -10z"/>
<path d="M5773 2345 c0 -7 6 -11 14 -8 7 3 13 6 13 8 0 2 -6 5 -13 8 -8 3 -14
-1 -14 -8z"/>
<path d="M5710 2316 c0 -2 7 -6 15 -10 8 -3 15 -1 15 4 0 6 -7 10 -15 10 -8 0
-15 -2 -15 -4z"/>
<path d="M5685 2300 c3 -5 11 -10 16 -10 6 0 7 5 4 10 -3 6 -11 10 -16 10 -6
0 -7 -4 -4 -10z"/>
<path d="M5635 2270 c-10 -11 -15 -20 -11 -20 11 0 39 30 34 36 -3 2 -13 -5
-23 -16z"/>
<path d="M5579 2243 c-1 -5 -1 -11 0 -15 1 -11 -7 -10 -31 3 -15 8 -19 8 -14
0 4 -6 0 -14 -9 -17 -13 -5 -14 -9 -4 -15 17 -10 72 18 63 33 -5 8 -1 9 10 5
10 -4 15 -3 11 3 -7 12 -24 13 -26 3z m-19 -27 c0 -2 -7 -7 -16 -10 -8 -3 -12
-2 -9 4 6 10 25 14 25 6z"/>
<path d="M5450 2176 c0 -2 8 -10 18 -17 15 -13 16 -12 3 4 -13 16 -21 21 -21
13z"/>
<path d="M5400 2130 c0 -5 5 -10 11 -10 5 0 7 5 4 10 -3 6 -8 10 -11 10 -2 0
-4 -4 -4 -10z"/>
<path d="M5357 2113 c-10 -9 -9 -23 1 -23 5 0 9 7 9 15 0 17 -1 18 -10 8z"/>
<path d="M5257 2058 c-7 -5 4 -6 23 -3 19 3 36 8 39 11 8 7 -49 0 -62 -8z"/>
<path d="M6770 2201 c-13 -24 -13 -51 -1 -51 12 0 41 40 41 57 0 20 -28 15
-40 -6z"/>
<path d="M6700 2154 c-12 -31 -13 -44 -2 -44 14 0 42 35 42 53 0 26 -29 20
-40 -9z"/>
<path d="M6630 2110 c-7 -17 -10 -33 -6 -37 10 -10 46 28 46 49 0 29 -26 21
-40 -12z"/>
<path d="M6566 2078 c-17 -24 -21 -48 -8 -48 14 0 42 35 42 53 0 24 -16 21
-34 -5z"/>
<path d="M5425 1391 c-10 -20 -11 -32 -4 -36 14 -9 49 24 49 47 0 28 -28 21
-45 -11z"/>
</g>
</svg>
